<?xml version="1.0" standalone="no"?>
<!DOCTYPE svg PUBLIC "-//W3C//DTD SVG 20010904//EN"
 "http://www.w3.org/TR/2001/REC-SVG-20010904/DTD/svg10.dtd">
<svg version="1.0" xmlns="http://www.w3.org/2000/svg"
 width="1280.000000pt" height="1025.000000pt" viewBox="0 0 1280.000000 1025.000000"
 preserveAspectRatio="xMidYMid meet">
<metadata>
Created by potrace 1.15, written by Peter Selinger 2001-2017
</metadata>
<g transform="translate(0.000000,1025.000000) scale(0.100000,-0.100000)"
fill="#3f51b5" stroke="none">
<path d="M9898 10240 c-133 -21 -275 -92 -339 -169 -145 -175 -158 -493 -34
-841 38 -105 129 -278 171 -324 28 -31 40 -37 59 -32 24 6 25 4 25 -36 -1 -78
-28 -197 -55 -244 -46 -79 -129 -124 -305 -166 -109 -25 -246 -76 -386 -144
-230 -109 -306 -232 -344 -549 -14 -123 -31 -210 -106 -570 -75 -360 -91 -422
-145 -593 -22 -70 -45 -152 -50 -183 -20 -123 -39 -468 -39 -709 0 -277 -10
-420 -39 -575 -11 -55 -22 -125 -25 -156 -4 -36 -22 -90 -50 -150 -49 -105
-69 -186 -90 -369 -17 -145 -19 -182 -17 -346 1 -107 3 -123 22 -143 12 -13
30 -21 42 -19 19 3 23 13 34 115 7 62 17 127 22 145 9 31 9 29 10 -23 2 -106
22 -264 37 -286 17 -27 49 -30 59 -5 12 30 17 175 8 255 -5 42 -6 77 -2 77 15
0 29 -69 38 -186 5 -66 15 -132 22 -147 15 -33 48 -36 75 -6 16 18 18 34 16
117 -1 54 -6 130 -10 170 -5 40 -5 75 -1 77 3 3 10 -44 13 -104 4 -60 11 -126
16 -147 16 -72 67 -78 89 -11 8 24 9 60 1 124 -11 104 -2 173 33 243 12 25 29
46 38 48 9 2 48 -24 85 -58 75 -66 100 -71 137 -28 35 41 10 108 -68 178 -15
14 -46 52 -68 85 -22 33 -64 91 -94 129 -60 77 -64 98 -38 208 8 35 26 189 40
343 26 282 39 366 118 800 25 132 50 276 57 320 7 44 43 184 81 310 74 246 89
310 114 475 16 109 63 300 88 360 l14 35 7 -45 c3 -25 11 -205 16 -400 7 -243
15 -377 25 -424 28 -131 48 -368 49 -586 1 -213 1 -216 -31 -330 -64 -227
-139 -588 -165 -790 -17 -139 -17 -674 0 -835 7 -66 26 -228 42 -360 50 -411
62 -554 63 -725 2 -150 -1 -174 -25 -265 -81 -302 -92 -549 -51 -1160 20 -309
22 -576 4 -680 -14 -89 -32 -123 -120 -240 -34 -44 -92 -123 -130 -175 -38
-52 -97 -119 -131 -149 -77 -67 -90 -93 -64 -122 10 -12 18 -29 16 -39 -3 -18
35 -53 48 -45 4 3 10 -8 13 -24 4 -19 16 -33 34 -40 54 -23 93 -49 114 -75 38
-48 92 -28 146 53 21 31 66 86 100 123 57 62 101 138 161 278 10 25 61 98 113
163 165 207 162 204 167 267 3 39 -3 79 -18 131 -28 95 -37 281 -21 416 7 55
42 210 81 353 38 140 73 280 79 310 19 101 33 332 40 665 5 220 11 337 19 351
32 59 63 205 77 368 15 162 40 327 120 781 19 110 35 203 35 207 0 4 25 7 56
6 l57 -2 -7 -405 c-9 -488 5 -747 49 -957 14 -62 14 -78 1 -140 -14 -64 -13
-92 4 -295 34 -386 64 -640 108 -904 24 -151 26 -180 26 -506 1 -270 -2 -349
-12 -362 -19 -23 -27 -146 -12 -192 20 -60 73 -110 178 -166 53 -28 120 -67
147 -87 70 -50 180 -159 215 -212 31 -48 62 -75 120 -105 19 -10 57 -42 85
-71 42 -45 56 -54 86 -54 38 0 79 23 79 45 0 8 9 19 20 25 11 6 20 17 20 24 0
7 11 18 25 24 14 6 25 17 25 23 0 6 11 20 25 31 14 11 25 26 25 34 0 8 4 14
10 14 15 0 32 39 25 59 -8 25 -169 153 -315 251 -132 88 -240 196 -277 276
-22 49 -24 64 -25 260 -1 171 2 234 20 344 48 302 61 403 73 560 16 226 7 524
-25 774 -23 179 -25 211 -15 320 12 148 29 264 68 466 38 200 105 592 128 745
21 148 24 547 5 670 -36 227 -130 677 -146 704 -3 5 -15 64 -26 132 -25 152
-26 330 -4 541 19 192 23 214 78 428 45 174 95 439 97 508 1 69 16 2 23 -103
13 -183 47 -529 62 -623 51 -320 123 -532 212 -624 41 -43 61 -46 161 -23 94
23 173 69 241 142 74 79 124 176 197 383 64 179 153 384 225 520 93 174 156
259 303 410 140 143 324 355 377 434 37 54 45 99 24 131 -31 48 -59 30 -161
-102 -42 -55 -95 -104 -95 -88 0 14 27 55 84 125 108 132 138 198 109 239 -18
27 -33 26 -68 -1 l-28 -22 26 45 c34 58 35 93 3 115 -23 14 -28 14 -62 -2 -42
-20 -138 -142 -185 -236 -30 -59 -46 -78 -29 -34 4 13 31 69 59 125 57 112 63
151 29 175 -31 22 -43 20 -81 -13 -37 -33 -63 -82 -133 -250 -26 -63 -59 -128
-74 -144 -23 -26 -29 -28 -49 -18 -34 19 -52 72 -50 152 1 59 -2 74 -19 91
-26 27 -63 18 -83 -18 -21 -40 -19 -306 4 -401 27 -116 23 -166 -21 -248 -73
-133 -467 -724 -483 -725 -9 0 -18 180 -29 615 -10 376 -17 467 -46 584 -23
90 -47 135 -102 187 -112 106 -239 173 -496 260 -183 62 -225 84 -285 149 -66
72 -93 141 -99 252 -4 84 -3 93 12 87 50 -19 168 208 225 434 46 177 56 383
27 522 -45 214 -181 359 -396 420 -86 24 -296 35 -392 20z"/>
<path d="M2595 10091 c-188 -31 -337 -126 -440 -281 -118 -177 -175 -409 -175
-712 0 -259 38 -476 121 -697 21 -58 38 -105 36 -106 -1 0 -13 -8 -27 -17 -14
-8 -90 -39 -170 -68 -328 -118 -396 -179 -464 -414 -47 -160 -59 -291 -62
-649 -1 -181 -6 -332 -9 -335 -13 -13 -226 221 -331 361 -57 78 -134 181 -171
229 -72 95 -98 153 -90 208 2 19 25 82 50 140 24 58 48 119 51 135 4 17 21 64
38 106 43 105 30 152 -38 135 -20 -5 -32 -21 -52 -66 -24 -54 -31 -61 -71 -75
-64 -22 -73 -19 -106 28 -16 23 -47 63 -68 88 -35 41 -65 103 -143 293 -36 89
-70 116 -102 84 -27 -27 0 -158 65 -319 19 -50 33 -92 31 -94 -3 -3 -24 37
-48 87 -74 159 -132 272 -149 291 -29 34 -51 40 -72 21 -10 -9 -19 -21 -19
-26 0 -5 18 -57 40 -115 22 -59 40 -109 40 -112 0 -3 -24 31 -52 75 -56 84
-89 109 -120 93 -27 -14 -22 -46 18 -119 45 -80 144 -272 144 -278 0 -2 -26
20 -57 48 -79 71 -137 104 -168 96 -30 -8 -32 -31 -7 -66 10 -14 120 -128 245
-255 258 -260 297 -306 333 -396 14 -35 104 -226 199 -424 95 -198 191 -398
213 -445 51 -108 110 -188 226 -308 143 -148 254 -227 344 -247 52 -11 75 13
137 137 94 192 129 356 141 667 6 158 8 171 21 147 8 -15 32 -125 54 -244 58
-311 57 -327 -50 -592 -46 -112 -103 -267 -128 -345 -25 -77 -53 -159 -64
-183 -10 -23 -19 -58 -19 -77 0 -19 -9 -90 -20 -157 -51 -320 -52 -620 -4
-1093 23 -228 40 -336 78 -505 66 -291 79 -476 51 -725 -14 -126 -25 -193 -82
-510 -42 -230 -36 -459 23 -935 13 -107 24 -233 24 -280 0 -76 -51 -533 -67
-599 -11 -47 -42 -100 -108 -180 -76 -95 -87 -114 -79 -136 5 -12 15 -16 36
-13 23 4 27 2 23 -13 -8 -25 13 -61 33 -57 9 2 27 -8 40 -21 16 -15 31 -22 47
-18 14 2 22 0 19 -4 -3 -5 10 -18 28 -29 28 -17 35 -18 53 -6 11 7 28 28 37
47 16 33 17 33 18 8 0 -34 36 -79 61 -79 25 0 65 26 74 48 17 42 28 169 26
298 -3 136 -1 146 29 240 l32 99 -7 170 c-4 94 -7 183 -6 199 2 40 87 374 116
459 30 85 48 206 75 502 33 363 63 521 140 735 59 164 68 211 95 493 19 208
31 286 69 447 60 260 64 286 76 498 8 127 8 199 0 239 -5 31 -10 60 -10 64 0
4 21 9 48 11 26 3 56 8 66 13 17 7 18 5 12 -18 -3 -14 1 -90 9 -169 9 -79 20
-201 25 -273 6 -71 24 -195 40 -275 17 -80 38 -183 46 -230 8 -47 33 -174 54
-282 25 -125 44 -252 51 -345 10 -150 31 -384 49 -548 5 -49 16 -202 25 -340
16 -256 24 -324 71 -620 22 -137 27 -204 28 -345 0 -161 -2 -183 -27 -270 -42
-146 -51 -193 -43 -225 8 -30 57 -83 160 -171 l60 -51 8 -82 c12 -129 23 -157
86 -224 69 -72 93 -83 134 -62 17 8 34 12 39 9 19 -11 122 9 140 27 11 11 25
19 33 19 26 0 46 12 39 23 -4 6 0 8 10 4 10 -4 29 -1 43 5 31 15 27 39 -20
112 -18 28 -50 83 -71 121 -21 39 -79 126 -130 195 -51 69 -100 139 -109 157
-22 45 -20 130 9 378 14 116 30 289 35 385 6 96 17 234 26 305 8 72 18 243 21
380 5 210 3 271 -13 385 -38 279 -22 556 72 1205 52 360 80 585 95 775 13 172
12 539 -1 650 -6 47 -13 123 -16 169 -3 48 -11 93 -20 106 -22 34 -140 385
-173 515 -60 240 -64 421 -17 754 14 99 26 182 27 185 0 3 9 -28 19 -70 10
-41 42 -129 70 -195 102 -234 99 -224 135 -473 19 -130 46 -279 60 -331 46
-169 140 -437 242 -685 58 -141 88 -246 104 -368 15 -122 7 -162 -51 -252 -40
-61 -57 -101 -86 -206 -39 -139 -38 -170 5 -182 32 -8 59 19 101 103 34 69 97
140 122 140 17 0 27 -46 47 -220 28 -248 37 -279 80 -265 26 8 41 48 43 118 1
56 2 53 8 -28 8 -110 15 -132 42 -141 44 -14 50 15 45 211 -3 99 -2 167 3 150
4 -16 8 -64 9 -105 2 -128 28 -200 71 -200 40 0 44 23 26 153 -18 136 -21 201
-7 177 5 -8 14 -64 21 -125 15 -140 17 -147 43 -143 32 5 38 49 26 208 -12
162 -12 165 -63 340 -28 98 -48 145 -94 220 -63 103 -145 288 -185 415 -13 44
-30 134 -37 200 -13 134 -111 736 -140 860 -10 44 -35 175 -55 290 -19 116
-54 298 -76 405 -22 107 -62 305 -89 440 -56 277 -87 394 -135 496 -60 132
-116 173 -290 213 -116 27 -299 115 -290 140 36 89 86 313 110 494 18 138 20
422 4 552 -46 373 -207 618 -459 696 -73 22 -219 32 -295 20z m1802 -5833 c-2
-24 -4 -5 -4 42 0 47 2 66 4 43 2 -24 2 -62 0 -85z m-820 -3980 c-3 -7 -5 -2
-5 12 0 14 2 19 5 13 2 -7 2 -19 0 -25z"/>
</g>
</svg>
